<?xml version="1.0" encoding="iso-8859-1"?>
<!-- Generator: Adobe Illustrator 19.0.0, SVG Export Plug-In . SVG Version: 6.00 Build 0)  -->
<svg version="1.1" id="Capa_1" xmlns="http://www.w3.org/2000/svg" xmlns:xlink="http://www.w3.org/1999/xlink" x="0px" y="0px"
	 viewBox="0 0 512 512" style="enable-background:new 0 0 512 512;" xml:space="preserve">
<g>
	<path style="fill:#FF5722;" d="M214.852,82.667c13.645,1.777,27.391,2.668,41.152,2.667c13.761,0.001,27.507-0.89,41.152-2.667
		c5.841-0.766,9.955-6.123,9.189-11.964c-0.074-0.565-0.193-1.123-0.357-1.668l-13.867-46.229C288.006,9.306,275.578,0.06,261.465,0
		h-10.923c-14.113,0.06-26.541,9.306-30.656,22.805L206.02,69.035c-1.688,5.644,1.519,11.588,7.164,13.275
		C213.729,82.473,214.287,82.593,214.852,82.667L214.852,82.667z"/>
	<path style="fill:#FF5722;" d="M158.318,259.541c30.968,12.668,64.24,18.728,97.685,17.792
		c33.445,0.936,66.718-5.124,97.685-17.792c4.802-2.269,7.203-7.726,5.632-12.8l-23.104-76.949
		c-1.66-5.529-7.418-8.734-12.992-7.232c-44.173,10.6-90.227,10.6-134.4,0c-5.574-1.502-11.332,1.703-12.992,7.232l-23.147,77.035
		C151.163,251.874,153.557,257.278,158.318,259.541z"/>
	<path style="fill:#FF5722;" d="M473.07,472.235l-32-128c-3.564-14.25-16.372-24.243-31.061-24.235h-36.672
		c-5.891,0-10.667,4.776-10.667,10.667c0,12.8-42.539,32-106.667,32s-106.667-19.2-106.667-32c0-5.891-4.776-10.667-10.667-10.667
		h-36.672c-14.689-0.008-27.497,9.985-31.061,24.235l-32,128c-4.289,17.145,6.133,34.52,23.278,38.809
		c2.545,0.637,5.159,0.958,7.783,0.956h372.011c17.673,0.01,32.008-14.309,32.018-31.982
		C474.028,477.394,473.707,474.78,473.07,472.235z"/>
</g>
</svg>
